%TF.GenerationSoftware,KiCad,Pcbnew,9.0.2*%
%TF.CreationDate,2026-06-16T00:44:57-04:00*%
%TF.ProjectId,CANIO-Board,43414e49-4f2d-4426-9f61-72642e6b6963,A*%
%TF.SameCoordinates,Original*%
%TF.FileFunction,Paste,Top*%
%TF.FilePolarity,Positive*%
%FSLAX46Y46*%
G04 Gerber Fmt 4.6, Leading zero omitted, Abs format (unit mm)*
G04 Created by KiCad (PCBNEW 9.0.2) date 2026-06-16 00:44:57*
%MOMM*%
%LPD*%
G01*
G04 APERTURE LIST*
G04 Aperture macros list*
%AMRoundRect*
0 Rectangle with rounded corners*
0 $1 Rounding radius*
0 $2 $3 $4 $5 $6 $7 $8 $9 X,Y pos of 4 corners*
0 Add a 4 corners polygon primitive as box body*
4,1,4,$2,$3,$4,$5,$6,$7,$8,$9,$2,$3,0*
0 Add four circle primitives for the rounded corners*
1,1,$1+$1,$2,$3*
1,1,$1+$1,$4,$5*
1,1,$1+$1,$6,$7*
1,1,$1+$1,$8,$9*
0 Add four rect primitives between the rounded corners*
20,1,$1+$1,$2,$3,$4,$5,0*
20,1,$1+$1,$4,$5,$6,$7,0*
20,1,$1+$1,$6,$7,$8,$9,0*
20,1,$1+$1,$8,$9,$2,$3,0*%
%AMRotRect*
0 Rectangle, with rotation*
0 The origin of the aperture is its center*
0 $1 length*
0 $2 width*
0 $3 Rotation angle, in degrees counterclockwise*
0 Add horizontal line*
21,1,$1,$2,0,0,$3*%
G04 Aperture macros list end*
%ADD10RoundRect,0.250001X0.624999X-0.462499X0.624999X0.462499X-0.624999X0.462499X-0.624999X-0.462499X0*%
%ADD11R,2.800000X1.000000*%
%ADD12RoundRect,0.237500X-0.237500X0.250000X-0.237500X-0.250000X0.237500X-0.250000X0.237500X0.250000X0*%
%ADD13RoundRect,0.237500X0.237500X-0.250000X0.237500X0.250000X-0.237500X0.250000X-0.237500X-0.250000X0*%
%ADD14RoundRect,0.150000X0.150000X-0.512500X0.150000X0.512500X-0.150000X0.512500X-0.150000X-0.512500X0*%
%ADD15RoundRect,0.045000X0.105000X-0.255000X0.105000X0.255000X-0.105000X0.255000X-0.105000X-0.255000X0*%
%ADD16RoundRect,0.250000X1.050000X0.550000X-1.050000X0.550000X-1.050000X-0.550000X1.050000X-0.550000X0*%
%ADD17RoundRect,0.150000X0.875000X0.150000X-0.875000X0.150000X-0.875000X-0.150000X0.875000X-0.150000X0*%
%ADD18RoundRect,0.237500X0.237500X-0.300000X0.237500X0.300000X-0.237500X0.300000X-0.237500X-0.300000X0*%
%ADD19R,0.600000X1.150000*%
%ADD20R,0.300000X1.150000*%
%ADD21RoundRect,0.237500X0.300000X0.237500X-0.300000X0.237500X-0.300000X-0.237500X0.300000X-0.237500X0*%
%ADD22RoundRect,0.250000X-1.050000X-0.550000X1.050000X-0.550000X1.050000X0.550000X-1.050000X0.550000X0*%
%ADD23RotRect,1.000000X1.800000X315.000000*%
%ADD24RoundRect,0.237500X-0.300000X-0.237500X0.300000X-0.237500X0.300000X0.237500X-0.300000X0.237500X0*%
%ADD25RoundRect,0.150000X0.725000X0.150000X-0.725000X0.150000X-0.725000X-0.150000X0.725000X-0.150000X0*%
%ADD26RoundRect,0.237500X-0.237500X0.300000X-0.237500X-0.300000X0.237500X-0.300000X0.237500X0.300000X0*%
%ADD27RoundRect,0.150000X-0.512500X-0.150000X0.512500X-0.150000X0.512500X0.150000X-0.512500X0.150000X0*%
%ADD28RoundRect,0.125000X0.353553X0.530330X-0.530330X-0.353553X-0.353553X-0.530330X0.530330X0.353553X0*%
%ADD29RoundRect,0.125000X-0.353553X0.530330X-0.530330X0.353553X0.353553X-0.530330X0.530330X-0.353553X0*%
G04 APERTURE END LIST*
D10*
%TO.C,LED1*%
X155475000Y-153775000D03*
X155475000Y-150800000D03*
%TD*%
D11*
%TO.C,SW2*%
X133183357Y-142995000D03*
X138983357Y-142995000D03*
X133183357Y-146995000D03*
X138983357Y-146995000D03*
%TD*%
D12*
%TO.C,R17*%
X142500000Y-160337500D03*
X142500000Y-162162500D03*
%TD*%
D13*
%TO.C,R5*%
X117836643Y-155907500D03*
X117836643Y-154082500D03*
%TD*%
D12*
%TO.C,R10*%
X152875000Y-146875000D03*
X152875000Y-148700000D03*
%TD*%
D14*
%TO.C,TVS3*%
X122175000Y-130200000D03*
X123125000Y-130200000D03*
X124075000Y-130200000D03*
X124075000Y-127925000D03*
X122175000Y-127925000D03*
%TD*%
D15*
%TO.C,FILTER2*%
X149500000Y-155650000D03*
X150000000Y-155650000D03*
X150500000Y-155650000D03*
X150500000Y-154350000D03*
X150000000Y-154350000D03*
X149500000Y-154350000D03*
%TD*%
D12*
%TO.C,R12*%
X176675000Y-117137500D03*
X176675000Y-118962500D03*
%TD*%
D11*
%TO.C,SW1*%
X121016643Y-142995000D03*
X126816643Y-142995000D03*
X121016643Y-146995000D03*
X126816643Y-146995000D03*
%TD*%
D16*
%TO.C,C16*%
X186282500Y-115950000D03*
X182682500Y-115950000D03*
%TD*%
D11*
%TO.C,SW9*%
X129200000Y-132050000D03*
X135000000Y-132050000D03*
X129200000Y-136050000D03*
X135000000Y-136050000D03*
%TD*%
D13*
%TO.C,R1*%
X117836643Y-143907500D03*
X117836643Y-142082500D03*
%TD*%
%TO.C,R4*%
X169996643Y-143907500D03*
X169996643Y-142082500D03*
%TD*%
D17*
%TO.C,CAN1*%
X112400000Y-116040000D03*
X112400000Y-114770000D03*
X112400000Y-113500000D03*
X112400000Y-112230000D03*
X112400000Y-110960000D03*
X112400000Y-109690000D03*
X112400000Y-108420000D03*
X112400000Y-107150000D03*
X103100000Y-107150000D03*
X103100000Y-108420000D03*
X103100000Y-109690000D03*
X103100000Y-110960000D03*
X103100000Y-112230000D03*
X103100000Y-113500000D03*
X103100000Y-114770000D03*
X103100000Y-116040000D03*
%TD*%
D18*
%TO.C,C7*%
X169996643Y-159857500D03*
X169996643Y-158132500D03*
%TD*%
%TO.C,C4*%
X182163357Y-147857500D03*
X182163357Y-146132500D03*
%TD*%
%TO.C,C1*%
X129996643Y-147857500D03*
X129996643Y-146132500D03*
%TD*%
D11*
%TO.C,SW7*%
X161016643Y-154995000D03*
X166816643Y-154995000D03*
X161016643Y-158995000D03*
X166816643Y-158995000D03*
%TD*%
D15*
%TO.C,FILTER1*%
X104825000Y-119675000D03*
X105325000Y-119675000D03*
X105825000Y-119675000D03*
X105825000Y-118375000D03*
X105325000Y-118375000D03*
X104825000Y-118375000D03*
%TD*%
D11*
%TO.C,SW6*%
X133183357Y-154995000D03*
X138983357Y-154995000D03*
X133183357Y-158995000D03*
X138983357Y-158995000D03*
%TD*%
D19*
%TO.C,USB1*%
X146800000Y-158580000D03*
X147600000Y-158580000D03*
D20*
X148750000Y-158580000D03*
X149750000Y-158580000D03*
X150250000Y-158580000D03*
X151250000Y-158580000D03*
D19*
X153200000Y-158580000D03*
X152400000Y-158580000D03*
D20*
X151750000Y-158580000D03*
X150750000Y-158580000D03*
X149250000Y-158580000D03*
X148250000Y-158580000D03*
%TD*%
D11*
%TO.C,SW4*%
X173183357Y-142995000D03*
X178983357Y-142995000D03*
X173183357Y-146995000D03*
X178983357Y-146995000D03*
%TD*%
D18*
%TO.C,C15*%
X197795000Y-111312500D03*
X197795000Y-109587500D03*
%TD*%
%TO.C,C5*%
X129996643Y-159857500D03*
X129996643Y-158132500D03*
%TD*%
D21*
%TO.C,C11*%
X145550000Y-145525000D03*
X143825000Y-145525000D03*
%TD*%
D18*
%TO.C,C6*%
X142083357Y-157975000D03*
X142083357Y-156250000D03*
%TD*%
D10*
%TO.C,LED4*%
X176675000Y-124537500D03*
X176675000Y-121562500D03*
%TD*%
D12*
%TO.C,R18*%
X157500000Y-160337500D03*
X157500000Y-162162500D03*
%TD*%
D13*
%TO.C,R3*%
X157836643Y-143907500D03*
X157836643Y-142082500D03*
%TD*%
%TO.C,R8*%
X169996643Y-155907500D03*
X169996643Y-154082500D03*
%TD*%
D10*
%TO.C,LED3*%
X179175000Y-124537500D03*
X179175000Y-121562500D03*
%TD*%
D11*
%TO.C,SW5*%
X121016643Y-154995000D03*
X126816643Y-154995000D03*
X121016643Y-158995000D03*
X126816643Y-158995000D03*
%TD*%
D22*
%TO.C,C25*%
X102375000Y-101325000D03*
X105975000Y-101325000D03*
%TD*%
D13*
%TO.C,R7*%
X157836643Y-155907500D03*
X157836643Y-154082500D03*
%TD*%
D23*
%TO.C,Y1*%
X157908883Y-137558883D03*
X156141117Y-135791117D03*
%TD*%
D16*
%TO.C,C17*%
X186282500Y-110100000D03*
X182682500Y-110100000D03*
%TD*%
D18*
%TO.C,C19*%
X197657500Y-97125000D03*
X197657500Y-95400000D03*
%TD*%
D12*
%TO.C,R11*%
X179175000Y-117137500D03*
X179175000Y-118962500D03*
%TD*%
D13*
%TO.C,R6*%
X129996643Y-155907500D03*
X129996643Y-154082500D03*
%TD*%
D24*
%TO.C,C9*%
X160250000Y-138625000D03*
X161975000Y-138625000D03*
%TD*%
D18*
%TO.C,C8*%
X182163357Y-159857500D03*
X182163357Y-158132500D03*
%TD*%
D13*
%TO.C,R2*%
X129996643Y-143907500D03*
X129996643Y-142082500D03*
%TD*%
D12*
%TO.C,R9*%
X155475000Y-146875000D03*
X155475000Y-148700000D03*
%TD*%
D25*
%TO.C,LOAD1*%
X173850000Y-124630000D03*
X173850000Y-123360000D03*
X173850000Y-122090000D03*
X173850000Y-120820000D03*
X173850000Y-119550000D03*
X173850000Y-118280000D03*
X173850000Y-117010000D03*
X173850000Y-115740000D03*
X173850000Y-114470000D03*
X164300000Y-114470000D03*
X164300000Y-115740000D03*
X164300000Y-117010000D03*
X164300000Y-118280000D03*
X164300000Y-119550000D03*
X164300000Y-120820000D03*
X164300000Y-122090000D03*
X164300000Y-123360000D03*
X164300000Y-124630000D03*
%TD*%
D12*
%TO.C,R19*%
X138175000Y-133075000D03*
X138175000Y-134900000D03*
%TD*%
D18*
%TO.C,C22*%
X189657500Y-97125000D03*
X189657500Y-95400000D03*
%TD*%
D26*
%TO.C,C27*%
X140175000Y-133125000D03*
X140175000Y-134850000D03*
%TD*%
D24*
%TO.C,C10*%
X160250000Y-140625000D03*
X161975000Y-140625000D03*
%TD*%
D21*
%TO.C,C12*%
X145550000Y-147525000D03*
X143825000Y-147525000D03*
%TD*%
D11*
%TO.C,SW8*%
X173183357Y-154995000D03*
X178983357Y-154995000D03*
X173183357Y-158995000D03*
X178983357Y-158995000D03*
%TD*%
D18*
%TO.C,C18*%
X189795000Y-111312500D03*
X189795000Y-109587500D03*
%TD*%
D24*
%TO.C,C14*%
X158737500Y-135175000D03*
X160462500Y-135175000D03*
%TD*%
D11*
%TO.C,SW3*%
X161016643Y-142995000D03*
X166816643Y-142995000D03*
X161016643Y-146995000D03*
X166816643Y-146995000D03*
%TD*%
D24*
%TO.C,C13*%
X160262500Y-136875000D03*
X161987500Y-136875000D03*
%TD*%
D10*
%TO.C,LED2*%
X152875000Y-153775000D03*
X152875000Y-150800000D03*
%TD*%
D27*
%TO.C,BUCK2*%
X192520000Y-95312500D03*
X192520000Y-96262500D03*
X192520000Y-97212500D03*
X194795000Y-97212500D03*
X194795000Y-96262500D03*
X194795000Y-95312500D03*
%TD*%
D16*
%TO.C,C20*%
X186420000Y-101587500D03*
X182820000Y-101587500D03*
%TD*%
%TO.C,C21*%
X186420000Y-95737500D03*
X182820000Y-95737500D03*
%TD*%
D18*
%TO.C,C3*%
X169996643Y-147857500D03*
X169996643Y-146132500D03*
%TD*%
%TO.C,C2*%
X142163357Y-147857500D03*
X142163357Y-146132500D03*
%TD*%
D28*
%TO.C,MCU1*%
X154932070Y-139027728D03*
X154366384Y-138462043D03*
X153800699Y-137896357D03*
X153235014Y-137330672D03*
X152669328Y-136764986D03*
X152103643Y-136199301D03*
X151537957Y-135633616D03*
X150972272Y-135067930D03*
D29*
X149027728Y-135067930D03*
X148462043Y-135633616D03*
X147896357Y-136199301D03*
X147330672Y-136764986D03*
X146764986Y-137330672D03*
X146199301Y-137896357D03*
X145633616Y-138462043D03*
X145067930Y-139027728D03*
D28*
X145067930Y-140972272D03*
X145633616Y-141537957D03*
X146199301Y-142103643D03*
X146764986Y-142669328D03*
X147330672Y-143235014D03*
X147896357Y-143800699D03*
X148462043Y-144366384D03*
X149027728Y-144932070D03*
D29*
X150972272Y-144932070D03*
X151537957Y-144366384D03*
X152103643Y-143800699D03*
X152669328Y-143235014D03*
X153235014Y-142669328D03*
X153800699Y-142103643D03*
X154366384Y-141537957D03*
X154932070Y-140972272D03*
%TD*%
D27*
%TO.C,BUCK1*%
X192657500Y-109500000D03*
X192657500Y-110450000D03*
X192657500Y-111400000D03*
X194932500Y-111400000D03*
X194932500Y-110450000D03*
X194932500Y-109500000D03*
%TD*%
M02*
