M48
; DRILL file {KiCad 9.0.2} date 2026-06-16T00:45:40-0400
; FORMAT={-:-/ absolute / metric / decimal}
; #@! TF.CreationDate,2026-06-16T00:45:40-04:00
; #@! TF.GenerationSoftware,Kicad,Pcbnew,9.0.2
; #@! TF.FileFunction,Plated,1,4,PTH
FMAT,2
METRIC
; #@! TA.AperFunction,Plated,PTH,ViaDrill
T1C0.300
; #@! TA.AperFunction,Plated,PTH,ComponentDrill
T2C0.500
; #@! TA.AperFunction,Plated,PTH,ComponentDrill
T3C0.600
; #@! TA.AperFunction,Plated,PTH,ComponentDrill
T4C0.800
; #@! TA.AperFunction,Plated,PTH,ComponentDrill
T5C1.000
; #@! TA.AperFunction,Plated,PTH,ComponentDrill
T6C1.100
; #@! TA.AperFunction,Plated,PTH,ComponentDrill
T7C1.200
; #@! TA.AperFunction,Plated,PTH,ComponentDrill
T8C1.300
; #@! TA.AperFunction,Plated,PTH,ComponentDrill
T9C1.760
; #@! TA.AperFunction,Plated,PTH,ComponentDrill
T10C1.810
; #@! TA.AperFunction,Plated,PTH,ComponentDrill
T11C3.500
%
G90
G05
T1
X101.325Y-114.775
X101.325Y-116.025
X101.35Y-109.7
X102.225Y-122.325
X102.225Y-126.325
X102.225Y-130.325
X102.225Y-133.75
X103.35Y-134.875
X103.625Y-120.675
X103.7Y-103.55
X103.75Y-117.125
X104.875Y-123.5
X104.9Y-130.1
X105.475Y-114.0
X106.425Y-110.7
X106.425Y-117.125
X106.5Y-120.825
X106.575Y-118.6
X106.575Y-119.4
X106.875Y-115.675
X107.075Y-112.025
X112.7Y-105.7
X112.775Y-97.05
X112.775Y-98.55
X112.775Y-100.05
X114.175Y-113.5
X114.2Y-111.0
X114.275Y-97.05
X114.275Y-98.55
X114.275Y-100.05
X114.4Y-116.05
X114.725Y-133.2
X119.05Y-119.9
X119.6Y-101.1
X119.725Y-123.0
X121.875Y-137.5
X122.075Y-114.85
X123.075Y-132.7
X123.475Y-129.05
X123.875Y-144.95
X123.9Y-146.995
X123.925Y-156.95
X123.95Y-158.995
X124.27Y-114.85
X124.425Y-116.925
X124.6Y-122.975
X126.05Y-133.85
X126.05Y-135.125
X126.465Y-114.85
X127.65Y-124.75
X128.66Y-114.85
X129.475Y-116.975
X129.55Y-122.975
X130.855Y-114.85
X132.7Y-124.65
X133.05Y-114.85
X133.825Y-101.925
X134.475Y-116.975
X134.625Y-122.95
X135.245Y-114.85
X136.025Y-145.025
X136.1Y-156.875
X136.125Y-146.995
X136.125Y-158.995
X137.44Y-114.85
X137.6Y-124.625
X139.475Y-116.975
X139.55Y-113.85
X139.6Y-122.975
X139.635Y-114.85
X139.75Y-110.85
X141.725Y-102.525
X141.8Y-133.125
X141.83Y-114.85
X142.7Y-141.95
X142.7Y-142.85
X142.85Y-124.75
X143.375Y-110.875
X143.45Y-113.025
X143.525Y-141.9
X143.825Y-148.95
X144.025Y-114.85
X144.15Y-138.125
X144.375Y-116.975
X144.575Y-122.975
X144.75Y-137.55
X145.3Y-112.85
X145.75Y-144.6
X146.22Y-114.85
X147.675Y-141.775
X147.975Y-125.05
X148.25Y-146.4
X148.415Y-114.85
X149.363Y-136.963
X149.475Y-116.975
X149.475Y-138.6
X149.525Y-146.4
X149.6Y-122.975
X150.0Y-143.125
X150.05Y-140.425
X150.075Y-102.225
X150.212Y-136.96
X150.61Y-114.85
X151.2Y-137.1
X151.275Y-154.35
X151.275Y-155.65
X151.475Y-137.95
X151.95Y-146.15
X152.375Y-138.2
X152.625Y-110.85
X152.675Y-125.0
X152.805Y-114.85
X152.875Y-145.775
X153.0Y-144.7
X153.95Y-144.525
X154.2Y-143.625
X154.4Y-116.975
X154.625Y-122.975
X155.0Y-114.85
X155.15Y-143.425
X155.3Y-142.45
X155.875Y-139.975
X157.375Y-114.927
X157.7Y-124.95
X159.25Y-116.975
X160.25Y-139.625
X161.225Y-130.525
X161.975Y-137.75
X161.975Y-139.65
X162.0Y-135.275
X162.4Y-129.875
X163.6Y-132.95
X163.9Y-146.995
X163.9Y-158.995
X163.925Y-131.7
X163.925Y-144.9
X163.95Y-156.8
X164.975Y-102.1
X167.25Y-118.275
X167.6Y-148.95
X167.6Y-153.7
X168.5Y-148.975
X170.85Y-117.0
X171.675Y-115.725
X172.875Y-102.05
X175.475Y-114.475
X176.1Y-146.995
X176.125Y-144.825
X176.2Y-158.995
X176.675Y-116.0
X180.0Y-116.875
X186.25Y-113.125
X190.85Y-150.825
X190.85Y-155.75
X191.075Y-97.125
X191.225Y-111.312
X192.525Y-94.325
X192.65Y-108.575
T2
X101.625Y-90.0
X101.625Y-160.75
X102.394Y-88.144
X102.394Y-91.856
X102.394Y-158.894
X102.394Y-162.606
X104.25Y-87.375
X104.25Y-92.625
X104.25Y-158.125
X104.25Y-163.375
X106.106Y-88.144
X106.106Y-91.856
X106.106Y-158.894
X106.106Y-162.606
X106.875Y-90.0
X106.875Y-160.75
X193.125Y-90.0
X193.125Y-160.75
X193.894Y-88.144
X193.894Y-91.856
X193.894Y-158.894
X193.894Y-162.606
X195.75Y-87.375
X195.75Y-92.625
X195.75Y-158.125
X195.75Y-163.375
X197.606Y-88.144
X197.606Y-91.856
X197.606Y-158.894
X197.606Y-162.606
X198.375Y-90.0
X198.375Y-160.75
T4
X101.875Y-96.675
X106.955Y-96.675
X108.37Y-147.28
X108.37Y-154.9
X110.91Y-147.28
X110.91Y-154.9
X113.45Y-147.28
X113.45Y-154.9
X118.135Y-109.45
X125.74Y-111.95
X125.755Y-109.45
X133.36Y-111.95
X133.84Y-109.45
X141.46Y-109.45
X141.552Y-111.95
X149.172Y-111.95
X149.545Y-109.45
X157.165Y-109.45
X157.365Y-111.95
X164.985Y-111.95
X165.25Y-109.45
X172.325Y-111.95
X172.87Y-109.45
X179.945Y-111.95
X190.577Y-101.262
X190.715Y-115.45
X195.657Y-101.262
X195.795Y-115.45
T5
X119.25Y-132.245
X119.25Y-134.785
X119.25Y-137.325
X185.45Y-146.53
X185.45Y-149.07
X185.45Y-151.61
X185.45Y-154.15
X185.45Y-156.69
X185.45Y-159.23
X185.45Y-161.77
T6
X110.44Y-91.775
X110.44Y-94.315
X110.44Y-96.855
X110.44Y-99.395
T7
X105.967Y-73.15
X105.967Y-78.15
X109.467Y-73.15
X109.467Y-78.15
X118.078Y-73.15
X118.078Y-78.15
X119.646Y-104.825
X121.578Y-73.15
X121.578Y-78.15
X124.346Y-86.325
X124.346Y-93.325
X124.346Y-104.825
X127.464Y-104.825
X130.189Y-73.15
X130.189Y-78.15
X132.164Y-86.325
X132.164Y-93.325
X132.164Y-104.825
X133.689Y-73.15
X133.689Y-78.15
X135.282Y-104.825
X139.982Y-86.325
X139.982Y-93.325
X139.982Y-104.825
X142.3Y-73.15
X142.3Y-78.15
X143.1Y-104.825
X145.8Y-73.15
X145.8Y-78.15
X147.8Y-86.325
X147.8Y-93.325
X147.8Y-104.825
X150.918Y-104.825
X154.411Y-73.15
X154.411Y-78.15
X155.618Y-86.325
X155.618Y-93.325
X155.618Y-104.825
X157.911Y-73.15
X157.911Y-78.15
X158.736Y-104.825
X163.436Y-86.325
X163.436Y-93.325
X163.436Y-104.825
X166.522Y-73.15
X166.522Y-78.15
X166.554Y-104.825
X170.022Y-73.15
X170.022Y-78.15
X171.254Y-86.325
X171.254Y-93.325
X171.254Y-104.825
X174.371Y-104.825
X178.633Y-73.15
X178.633Y-78.15
X179.071Y-86.325
X179.071Y-93.325
X179.071Y-104.825
X182.133Y-73.15
X182.133Y-78.15
X190.745Y-73.15
X190.745Y-78.15
X194.245Y-73.15
X194.245Y-78.15
T8
X106.9Y-126.35
X106.9Y-131.35
X106.9Y-136.35
X171.175Y-133.968
X176.175Y-133.968
T9
X186.325Y-129.745
X186.325Y-135.205
T10
X112.2Y-127.42
X112.2Y-131.75
X112.2Y-136.08
T11
X104.25Y-90.0
X104.25Y-160.75
X195.75Y-90.0
X195.75Y-160.75
T3
X145.68Y-158.595G85X145.68Y-159.695
G05
X145.68Y-162.925G85X145.68Y-163.725
G05
X154.32Y-158.595G85X154.32Y-159.695
G05
X154.32Y-162.925G85X154.32Y-163.725
G05
M30
