%TF.GenerationSoftware,KiCad,Pcbnew,9.0.2*%
%TF.CreationDate,2026-06-21T11:47:36-04:00*%
%TF.ProjectId,CANIO-Board,43414e49-4f2d-4426-9f61-72642e6b6963,A*%
%TF.SameCoordinates,Original*%
%TF.FileFunction,Soldermask,Top*%
%TF.FilePolarity,Negative*%
%FSLAX46Y46*%
G04 Gerber Fmt 4.6, Leading zero omitted, Abs format (unit mm)*
G04 Created by KiCad (PCBNEW 9.0.2) date 2026-06-21 11:47:36*
%MOMM*%
%LPD*%
G01*
G04 APERTURE LIST*
G04 Aperture macros list*
%AMRoundRect*
0 Rectangle with rounded corners*
0 $1 Rounding radius*
0 $2 $3 $4 $5 $6 $7 $8 $9 X,Y pos of 4 corners*
0 Add a 4 corners polygon primitive as box body*
4,1,4,$2,$3,$4,$5,$6,$7,$8,$9,$2,$3,0*
0 Add four circle primitives for the rounded corners*
1,1,$1+$1,$2,$3*
1,1,$1+$1,$4,$5*
1,1,$1+$1,$6,$7*
1,1,$1+$1,$8,$9*
0 Add four rect primitives between the rounded corners*
20,1,$1+$1,$2,$3,$4,$5,0*
20,1,$1+$1,$4,$5,$6,$7,0*
20,1,$1+$1,$6,$7,$8,$9,0*
20,1,$1+$1,$8,$9,$2,$3,0*%
%AMRotRect*
0 Rectangle, with rotation*
0 The origin of the aperture is its center*
0 $1 length*
0 $2 width*
0 $3 Rotation angle, in degrees counterclockwise*
0 Add horizontal line*
21,1,$1,$2,0,0,$3*%
%AMFreePoly0*
4,1,6,1.000000,0.000000,0.500000,-0.750000,-0.500000,-0.750000,-0.500000,0.750000,0.500000,0.750000,1.000000,0.000000,1.000000,0.000000,$1*%
%AMFreePoly1*
4,1,6,0.500000,-0.750000,-0.650000,-0.750000,-0.150000,0.000000,-0.650000,0.750000,0.500000,0.750000,0.500000,-0.750000,0.500000,-0.750000,$1*%
G04 Aperture macros list end*
%ADD10C,0.010000*%
%ADD11RoundRect,0.250001X0.624999X-0.462499X0.624999X0.462499X-0.624999X0.462499X-0.624999X-0.462499X0*%
%ADD12R,2.800000X1.000000*%
%ADD13RoundRect,0.250000X0.550000X0.550000X-0.550000X0.550000X-0.550000X-0.550000X0.550000X-0.550000X0*%
%ADD14C,1.600000*%
%ADD15RoundRect,0.237500X-0.237500X0.250000X-0.237500X-0.250000X0.237500X-0.250000X0.237500X0.250000X0*%
%ADD16RoundRect,0.237500X0.237500X-0.250000X0.237500X0.250000X-0.237500X0.250000X-0.237500X-0.250000X0*%
%ADD17RoundRect,0.150000X0.150000X-0.512500X0.150000X0.512500X-0.150000X0.512500X-0.150000X-0.512500X0*%
%ADD18RoundRect,0.045000X0.105000X-0.255000X0.105000X0.255000X-0.105000X0.255000X-0.105000X-0.255000X0*%
%ADD19FreePoly0,0.000000*%
%ADD20FreePoly1,0.000000*%
%ADD21C,0.800000*%
%ADD22C,7.000000*%
%ADD23C,2.000000*%
%ADD24RoundRect,0.250000X1.050000X0.550000X-1.050000X0.550000X-1.050000X-0.550000X1.050000X-0.550000X0*%
%ADD25R,1.500000X2.300000*%
%ADD26RoundRect,0.250001X0.499999X0.899999X-0.499999X0.899999X-0.499999X-0.899999X0.499999X-0.899999X0*%
%ADD27O,1.500000X2.300000*%
%ADD28RoundRect,0.150000X0.875000X0.150000X-0.875000X0.150000X-0.875000X-0.150000X0.875000X-0.150000X0*%
%ADD29RoundRect,0.237500X0.237500X-0.300000X0.237500X0.300000X-0.237500X0.300000X-0.237500X-0.300000X0*%
%ADD30C,2.160000*%
%ADD31RoundRect,0.102000X1.320000X-1.320000X1.320000X1.320000X-1.320000X1.320000X-1.320000X-1.320000X0*%
%ADD32C,2.844000*%
%ADD33C,0.650000*%
%ADD34O,1.204000X2.004000*%
%ADD35O,1.204000X2.304000*%
%ADD36C,0.990600*%
%ADD37C,0.787400*%
%ADD38RoundRect,0.102000X0.900000X-0.900000X0.900000X0.900000X-0.900000X0.900000X-0.900000X-0.900000X0*%
%ADD39C,2.004000*%
%ADD40RoundRect,0.237500X0.300000X0.237500X-0.300000X0.237500X-0.300000X-0.237500X0.300000X-0.237500X0*%
%ADD41C,2.434000*%
%ADD42RoundRect,0.102000X-1.357500X1.357500X-1.357500X-1.357500X1.357500X-1.357500X1.357500X1.357500X0*%
%ADD43C,2.919000*%
%ADD44RoundRect,0.250000X-1.050000X-0.550000X1.050000X-0.550000X1.050000X0.550000X-1.050000X0.550000X0*%
%ADD45RotRect,1.000000X1.800000X315.000000*%
%ADD46RoundRect,0.237500X-0.300000X-0.237500X0.300000X-0.237500X0.300000X0.237500X-0.300000X0.237500X0*%
%ADD47RoundRect,0.150000X0.725000X0.150000X-0.725000X0.150000X-0.725000X-0.150000X0.725000X-0.150000X0*%
%ADD48RoundRect,0.237500X-0.237500X0.300000X-0.237500X-0.300000X0.237500X-0.300000X0.237500X0.300000X0*%
%ADD49R,1.700000X1.700000*%
%ADD50C,1.700000*%
%ADD51RoundRect,0.250001X1.149999X-1.149999X1.149999X1.149999X-1.149999X1.149999X-1.149999X-1.149999X0*%
%ADD52C,2.800000*%
%ADD53RoundRect,0.150000X-0.512500X-0.150000X0.512500X-0.150000X0.512500X0.150000X-0.512500X0.150000X0*%
%ADD54RoundRect,0.250001X-1.149999X-1.149999X1.149999X-1.149999X1.149999X1.149999X-1.149999X1.149999X0*%
%ADD55RoundRect,0.250000X-0.550000X0.550000X-0.550000X-0.550000X0.550000X-0.550000X0.550000X0.550000X0*%
%ADD56RoundRect,0.125000X0.353553X0.530330X-0.530330X-0.353553X-0.353553X-0.530330X0.530330X0.353553X0*%
%ADD57RoundRect,0.125000X-0.353553X0.530330X-0.530330X0.353553X0.353553X-0.530330X0.530330X-0.353553X0*%
G04 APERTURE END LIST*
%TO.C,SB4*%
G36*
X135725000Y-116225000D02*
G01*
X138175000Y-116225000D01*
X138175000Y-117725000D01*
X135725000Y-117725000D01*
X135725000Y-116225000D01*
G37*
%TO.C,SB13*%
G36*
X140725000Y-116225000D02*
G01*
X143175000Y-116225000D01*
X143175000Y-117725000D01*
X140725000Y-117725000D01*
X140725000Y-116225000D01*
G37*
%TO.C,SB24*%
G36*
X155725000Y-119225000D02*
G01*
X158175000Y-119225000D01*
X158175000Y-120725000D01*
X155725000Y-120725000D01*
X155725000Y-119225000D01*
G37*
%TO.C,SB3*%
G36*
X130725000Y-116225000D02*
G01*
X133175000Y-116225000D01*
X133175000Y-117725000D01*
X130725000Y-117725000D01*
X130725000Y-116225000D01*
G37*
%TO.C,SB2*%
G36*
X125725000Y-116225000D02*
G01*
X128175000Y-116225000D01*
X128175000Y-117725000D01*
X125725000Y-117725000D01*
X125725000Y-116225000D01*
G37*
D10*
%TO.C,USB1*%
X147150000Y-159195000D02*
X146450000Y-159195000D01*
X146450000Y-157955000D01*
X147150000Y-157955000D01*
X147150000Y-159195000D01*
G36*
X147150000Y-159195000D02*
G01*
X146450000Y-159195000D01*
X146450000Y-157955000D01*
X147150000Y-157955000D01*
X147150000Y-159195000D01*
G37*
X147950000Y-159195000D02*
X147250000Y-159195000D01*
X147250000Y-157955000D01*
X147950000Y-157955000D01*
X147950000Y-159195000D01*
G36*
X147950000Y-159195000D02*
G01*
X147250000Y-159195000D01*
X147250000Y-157955000D01*
X147950000Y-157955000D01*
X147950000Y-159195000D01*
G37*
X148450000Y-159195000D02*
X148050000Y-159195000D01*
X148050000Y-157955000D01*
X148450000Y-157955000D01*
X148450000Y-159195000D01*
G36*
X148450000Y-159195000D02*
G01*
X148050000Y-159195000D01*
X148050000Y-157955000D01*
X148450000Y-157955000D01*
X148450000Y-159195000D01*
G37*
X148950000Y-159195000D02*
X148550000Y-159195000D01*
X148550000Y-157955000D01*
X148950000Y-157955000D01*
X148950000Y-159195000D01*
G36*
X148950000Y-159195000D02*
G01*
X148550000Y-159195000D01*
X148550000Y-157955000D01*
X148950000Y-157955000D01*
X148950000Y-159195000D01*
G37*
X149450000Y-159195000D02*
X149050000Y-159195000D01*
X149050000Y-157955000D01*
X149450000Y-157955000D01*
X149450000Y-159195000D01*
G36*
X149450000Y-159195000D02*
G01*
X149050000Y-159195000D01*
X149050000Y-157955000D01*
X149450000Y-157955000D01*
X149450000Y-159195000D01*
G37*
X149950000Y-159195000D02*
X149550000Y-159195000D01*
X149550000Y-157955000D01*
X149950000Y-157955000D01*
X149950000Y-159195000D01*
G36*
X149950000Y-159195000D02*
G01*
X149550000Y-159195000D01*
X149550000Y-157955000D01*
X149950000Y-157955000D01*
X149950000Y-159195000D01*
G37*
X150450000Y-159195000D02*
X150050000Y-159195000D01*
X150050000Y-157955000D01*
X150450000Y-157955000D01*
X150450000Y-159195000D01*
G36*
X150450000Y-159195000D02*
G01*
X150050000Y-159195000D01*
X150050000Y-157955000D01*
X150450000Y-157955000D01*
X150450000Y-159195000D01*
G37*
X150950000Y-159195000D02*
X150550000Y-159195000D01*
X150550000Y-157955000D01*
X150950000Y-157955000D01*
X150950000Y-159195000D01*
G36*
X150950000Y-159195000D02*
G01*
X150550000Y-159195000D01*
X150550000Y-157955000D01*
X150950000Y-157955000D01*
X150950000Y-159195000D01*
G37*
X151450000Y-159195000D02*
X151050000Y-159195000D01*
X151050000Y-157955000D01*
X151450000Y-157955000D01*
X151450000Y-159195000D01*
G36*
X151450000Y-159195000D02*
G01*
X151050000Y-159195000D01*
X151050000Y-157955000D01*
X151450000Y-157955000D01*
X151450000Y-159195000D01*
G37*
X151950000Y-159195000D02*
X151550000Y-159195000D01*
X151550000Y-157955000D01*
X151950000Y-157955000D01*
X151950000Y-159195000D01*
G36*
X151950000Y-159195000D02*
G01*
X151550000Y-159195000D01*
X151550000Y-157955000D01*
X151950000Y-157955000D01*
X151950000Y-159195000D01*
G37*
X152750000Y-159195000D02*
X152050000Y-159195000D01*
X152050000Y-157955000D01*
X152750000Y-157955000D01*
X152750000Y-159195000D01*
G36*
X152750000Y-159195000D02*
G01*
X152050000Y-159195000D01*
X152050000Y-157955000D01*
X152750000Y-157955000D01*
X152750000Y-159195000D01*
G37*
X153550000Y-159195000D02*
X152850000Y-159195000D01*
X152850000Y-157955000D01*
X153550000Y-157955000D01*
X153550000Y-159195000D01*
G36*
X153550000Y-159195000D02*
G01*
X152850000Y-159195000D01*
X152850000Y-157955000D01*
X153550000Y-157955000D01*
X153550000Y-159195000D01*
G37*
%TO.C,SB12*%
G36*
X135725000Y-119225000D02*
G01*
X138175000Y-119225000D01*
X138175000Y-120725000D01*
X135725000Y-120725000D01*
X135725000Y-119225000D01*
G37*
%TO.C,SB15*%
G36*
X150725000Y-116225000D02*
G01*
X153175000Y-116225000D01*
X153175000Y-117725000D01*
X150725000Y-117725000D01*
X150725000Y-116225000D01*
G37*
%TO.C,SB17*%
G36*
X140725000Y-122225000D02*
G01*
X143175000Y-122225000D01*
X143175000Y-123725000D01*
X140725000Y-123725000D01*
X140725000Y-122225000D01*
G37*
%TO.C,SB9*%
G36*
X120725000Y-119225000D02*
G01*
X123175000Y-119225000D01*
X123175000Y-120725000D01*
X120725000Y-120725000D01*
X120725000Y-119225000D01*
G37*
%TO.C,SB14*%
G36*
X145725000Y-116225000D02*
G01*
X148175000Y-116225000D01*
X148175000Y-117725000D01*
X145725000Y-117725000D01*
X145725000Y-116225000D01*
G37*
%TO.C,SB19*%
G36*
X150725000Y-122225000D02*
G01*
X153175000Y-122225000D01*
X153175000Y-123725000D01*
X150725000Y-123725000D01*
X150725000Y-122225000D01*
G37*
%TO.C,SB6*%
G36*
X125725000Y-122225000D02*
G01*
X128175000Y-122225000D01*
X128175000Y-123725000D01*
X125725000Y-123725000D01*
X125725000Y-122225000D01*
G37*
%TO.C,SB8*%
G36*
X135725000Y-122225000D02*
G01*
X138175000Y-122225000D01*
X138175000Y-123725000D01*
X135725000Y-123725000D01*
X135725000Y-122225000D01*
G37*
%TO.C,SB16*%
G36*
X155725000Y-116225000D02*
G01*
X158175000Y-116225000D01*
X158175000Y-117725000D01*
X155725000Y-117725000D01*
X155725000Y-116225000D01*
G37*
%TO.C,SB18*%
G36*
X145725000Y-122225000D02*
G01*
X148175000Y-122225000D01*
X148175000Y-123725000D01*
X145725000Y-123725000D01*
X145725000Y-122225000D01*
G37*
%TO.C,SB20*%
G36*
X155725000Y-122225000D02*
G01*
X158175000Y-122225000D01*
X158175000Y-123725000D01*
X155725000Y-123725000D01*
X155725000Y-122225000D01*
G37*
%TO.C,SB23*%
G36*
X150725000Y-119225000D02*
G01*
X153175000Y-119225000D01*
X153175000Y-120725000D01*
X150725000Y-120725000D01*
X150725000Y-119225000D01*
G37*
%TO.C,SB7*%
G36*
X130725000Y-122225000D02*
G01*
X133175000Y-122225000D01*
X133175000Y-123725000D01*
X130725000Y-123725000D01*
X130725000Y-122225000D01*
G37*
%TO.C,SB5*%
G36*
X120725000Y-122225000D02*
G01*
X123175000Y-122225000D01*
X123175000Y-123725000D01*
X120725000Y-123725000D01*
X120725000Y-122225000D01*
G37*
%TO.C,SB1*%
G36*
X120725000Y-116225000D02*
G01*
X123175000Y-116225000D01*
X123175000Y-117725000D01*
X120725000Y-117725000D01*
X120725000Y-116225000D01*
G37*
%TO.C,SB11*%
G36*
X130725000Y-119225000D02*
G01*
X133175000Y-119225000D01*
X133175000Y-120725000D01*
X130725000Y-120725000D01*
X130725000Y-119225000D01*
G37*
%TO.C,SB10*%
G36*
X125725000Y-119225000D02*
G01*
X128175000Y-119225000D01*
X128175000Y-120725000D01*
X125725000Y-120725000D01*
X125725000Y-119225000D01*
G37*
%TO.C,SB22*%
G36*
X145725000Y-119225000D02*
G01*
X148175000Y-119225000D01*
X148175000Y-120725000D01*
X145725000Y-120725000D01*
X145725000Y-119225000D01*
G37*
%TO.C,SB21*%
G36*
X140725000Y-119225000D02*
G01*
X143175000Y-119225000D01*
X143175000Y-120725000D01*
X140725000Y-120725000D01*
X140725000Y-119225000D01*
G37*
%TD*%
D11*
%TO.C,LED1*%
X155475000Y-153775000D03*
X155475000Y-150800000D03*
%TD*%
D12*
%TO.C,SW2*%
X133183357Y-142995000D03*
X138983357Y-142995000D03*
X133183357Y-146995000D03*
X138983357Y-146995000D03*
%TD*%
D13*
%TO.C,DFB5*%
X157165000Y-109450000D03*
D14*
X149545000Y-109450000D03*
%TD*%
D15*
%TO.C,R17*%
X142500000Y-160337500D03*
X142500000Y-162162500D03*
%TD*%
D16*
%TO.C,R5*%
X117836643Y-155907500D03*
X117836643Y-154082500D03*
%TD*%
D15*
%TO.C,R10*%
X152875000Y-146875000D03*
X152875000Y-148700000D03*
%TD*%
D17*
%TO.C,TVS3*%
X122175000Y-130200000D03*
X123125000Y-130200000D03*
X124075000Y-130200000D03*
X124075000Y-127925000D03*
X122175000Y-127925000D03*
%TD*%
D18*
%TO.C,FILTER2*%
X149500000Y-155650000D03*
X150000000Y-155650000D03*
X150500000Y-155650000D03*
X150500000Y-154350000D03*
X150000000Y-154350000D03*
X149500000Y-154350000D03*
%TD*%
D19*
%TO.C,SB4*%
X136225000Y-116975000D03*
D20*
X137675000Y-116975000D03*
%TD*%
D21*
%TO.C,H1*%
X101625000Y-90000000D03*
X102393845Y-88143845D03*
X102393845Y-91856155D03*
X104250000Y-87375000D03*
D22*
X104250000Y-90000000D03*
D21*
X104250000Y-92625000D03*
X106106155Y-88143845D03*
X106106155Y-91856155D03*
X106875000Y-90000000D03*
%TD*%
D13*
%TO.C,DFB3*%
X141460000Y-109450000D03*
D14*
X133840000Y-109450000D03*
%TD*%
D13*
%TO.C,DFB7*%
X172870000Y-109450000D03*
D14*
X165250000Y-109450000D03*
%TD*%
D13*
%TO.C,DFB6*%
X164985000Y-111950000D03*
D14*
X157365000Y-111950000D03*
%TD*%
D15*
%TO.C,R12*%
X176675000Y-117137500D03*
X176675000Y-118962500D03*
%TD*%
D13*
%TO.C,DFB2*%
X133360000Y-111950000D03*
D14*
X125740000Y-111950000D03*
%TD*%
D12*
%TO.C,SW1*%
X121016643Y-142995000D03*
X126816643Y-142995000D03*
X121016643Y-146995000D03*
X126816643Y-146995000D03*
%TD*%
D23*
%TO.C,DCDC1*%
X110440000Y-91775000D03*
X110440000Y-94315000D03*
X110440000Y-96855000D03*
X110440000Y-99395000D03*
%TD*%
D24*
%TO.C,C16*%
X186282500Y-115950000D03*
X182682500Y-115950000D03*
%TD*%
D12*
%TO.C,SW9*%
X129200000Y-132050000D03*
X135000000Y-132050000D03*
X129200000Y-136050000D03*
X135000000Y-136050000D03*
%TD*%
D19*
%TO.C,SB13*%
X141225000Y-116975000D03*
D20*
X142675000Y-116975000D03*
%TD*%
D19*
%TO.C,SB24*%
X156225000Y-119975000D03*
D20*
X157675000Y-119975000D03*
%TD*%
D25*
%TO.C,WAGO6*%
X170022285Y-78150000D03*
D26*
X170022285Y-73150000D03*
D27*
X166522285Y-78150000D03*
X166522285Y-73150000D03*
%TD*%
D16*
%TO.C,R1*%
X117836643Y-143907500D03*
X117836643Y-142082500D03*
%TD*%
%TO.C,R4*%
X169996643Y-143907500D03*
X169996643Y-142082500D03*
%TD*%
D28*
%TO.C,CAN1*%
X112400000Y-116040000D03*
X112400000Y-114770000D03*
X112400000Y-113500000D03*
X112400000Y-112230000D03*
X112400000Y-110960000D03*
X112400000Y-109690000D03*
X112400000Y-108420000D03*
X112400000Y-107150000D03*
X103100000Y-107150000D03*
X103100000Y-108420000D03*
X103100000Y-109690000D03*
X103100000Y-110960000D03*
X103100000Y-112230000D03*
X103100000Y-113500000D03*
X103100000Y-114770000D03*
X103100000Y-116040000D03*
%TD*%
D14*
%TO.C,L2*%
X195657500Y-101262500D03*
X190577500Y-101262500D03*
%TD*%
D29*
%TO.C,C7*%
X169996643Y-159857500D03*
X169996643Y-158132500D03*
%TD*%
D19*
%TO.C,SB3*%
X131225000Y-116975000D03*
D20*
X132675000Y-116975000D03*
%TD*%
D25*
%TO.C,WAGO1*%
X109466571Y-78150000D03*
D26*
X109466571Y-73150000D03*
D27*
X105966571Y-78150000D03*
X105966571Y-73150000D03*
%TD*%
D29*
%TO.C,C4*%
X182163357Y-147857500D03*
X182163357Y-146132500D03*
%TD*%
D19*
%TO.C,SB2*%
X126225000Y-116975000D03*
D20*
X127675000Y-116975000D03*
%TD*%
D29*
%TO.C,C1*%
X129996643Y-147857500D03*
X129996643Y-146132500D03*
%TD*%
D12*
%TO.C,SW7*%
X161016643Y-154995000D03*
X166816643Y-154995000D03*
X161016643Y-158995000D03*
X166816643Y-158995000D03*
%TD*%
D18*
%TO.C,FILTER1*%
X104825000Y-119675000D03*
X105325000Y-119675000D03*
X105825000Y-119675000D03*
X105825000Y-118375000D03*
X105325000Y-118375000D03*
X104825000Y-118375000D03*
%TD*%
D30*
%TO.C,DT1*%
X186325000Y-141060000D03*
X186325000Y-123890000D03*
D31*
X186325000Y-135205000D03*
D32*
X186325000Y-129745000D03*
%TD*%
D12*
%TO.C,SW6*%
X133183357Y-154995000D03*
X138983357Y-154995000D03*
X133183357Y-158995000D03*
X138983357Y-158995000D03*
%TD*%
D33*
%TO.C,USB1*%
X147110000Y-159645000D03*
X152890000Y-159645000D03*
D34*
X145680000Y-163325000D03*
X154320000Y-163325000D03*
D35*
X145680000Y-159145000D03*
X154320000Y-159145000D03*
%TD*%
D19*
%TO.C,SB12*%
X136225000Y-119975000D03*
D20*
X137675000Y-119975000D03*
%TD*%
D25*
%TO.C,WAGO4*%
X145800000Y-78150000D03*
D26*
X145800000Y-73150000D03*
D27*
X142300000Y-78150000D03*
X142300000Y-73150000D03*
%TD*%
D12*
%TO.C,SW4*%
X173183357Y-142995000D03*
X178983357Y-142995000D03*
X173183357Y-146995000D03*
X178983357Y-146995000D03*
%TD*%
D36*
%TO.C,TC1*%
X124210000Y-132590000D03*
X125226000Y-137670000D03*
X123194000Y-137670000D03*
D37*
X123575000Y-133860000D03*
X124845000Y-133860000D03*
X123575000Y-135130000D03*
X124845000Y-135130000D03*
X123575000Y-136400000D03*
X124845000Y-136400000D03*
%TD*%
D29*
%TO.C,C15*%
X197795000Y-111312500D03*
X197795000Y-109587500D03*
%TD*%
%TO.C,C5*%
X129996643Y-159857500D03*
X129996643Y-158132500D03*
%TD*%
D14*
%TO.C,L1*%
X195795000Y-115450000D03*
X190715000Y-115450000D03*
%TD*%
D25*
%TO.C,WAGO7*%
X182133428Y-78150000D03*
D26*
X182133428Y-73150000D03*
D27*
X178633428Y-78150000D03*
X178633428Y-73150000D03*
%TD*%
D19*
%TO.C,SB15*%
X151225000Y-116975000D03*
D20*
X152675000Y-116975000D03*
%TD*%
D38*
%TO.C,RELAY1*%
X124346429Y-104825000D03*
D39*
X119646429Y-104825000D03*
X124346429Y-93325000D03*
X124346429Y-86325000D03*
%TD*%
D19*
%TO.C,SB17*%
X141225000Y-122975000D03*
D20*
X142675000Y-122975000D03*
%TD*%
D19*
%TO.C,SB9*%
X121225000Y-119975000D03*
D20*
X122675000Y-119975000D03*
%TD*%
D19*
%TO.C,SB14*%
X146225000Y-116975000D03*
D20*
X147675000Y-116975000D03*
%TD*%
D19*
%TO.C,SB19*%
X151225000Y-122975000D03*
D20*
X152675000Y-122975000D03*
%TD*%
D40*
%TO.C,C11*%
X145550000Y-145525000D03*
X143825000Y-145525000D03*
%TD*%
D13*
%TO.C,DFB1*%
X125755000Y-109450000D03*
D14*
X118135000Y-109450000D03*
%TD*%
D19*
%TO.C,SB6*%
X126225000Y-122975000D03*
D20*
X127675000Y-122975000D03*
%TD*%
D41*
%TO.C,DT2*%
X112200000Y-122045000D03*
X112200000Y-141455000D03*
D42*
X112200000Y-136080000D03*
D43*
X112200000Y-131750000D03*
X112200000Y-127420000D03*
%TD*%
D25*
%TO.C,WAGO3*%
X133688857Y-78150000D03*
D26*
X133688857Y-73150000D03*
D27*
X130188857Y-78150000D03*
X130188857Y-73150000D03*
%TD*%
D29*
%TO.C,C6*%
X142083357Y-157975000D03*
X142083357Y-156250000D03*
%TD*%
D11*
%TO.C,LED4*%
X176675000Y-124537500D03*
X176675000Y-121562500D03*
%TD*%
D19*
%TO.C,SB8*%
X136225000Y-122975000D03*
D20*
X137675000Y-122975000D03*
%TD*%
D13*
%TO.C,DFB8*%
X179945000Y-111950000D03*
D14*
X172325000Y-111950000D03*
%TD*%
D15*
%TO.C,R18*%
X157500000Y-160337500D03*
X157500000Y-162162500D03*
%TD*%
D16*
%TO.C,R3*%
X157836643Y-143907500D03*
X157836643Y-142082500D03*
%TD*%
%TO.C,R8*%
X169996643Y-155907500D03*
X169996643Y-154082500D03*
%TD*%
D38*
%TO.C,RELAY3*%
X139982143Y-104825000D03*
D39*
X135282143Y-104825000D03*
X139982143Y-93325000D03*
X139982143Y-86325000D03*
%TD*%
D38*
%TO.C,RELAY5*%
X155617858Y-104825000D03*
D39*
X150917858Y-104825000D03*
X155617858Y-93325000D03*
X155617858Y-86325000D03*
%TD*%
D13*
%TO.C,DFB4*%
X149172500Y-111950000D03*
D14*
X141552500Y-111950000D03*
%TD*%
D11*
%TO.C,LED3*%
X179175000Y-124537500D03*
X179175000Y-121562500D03*
%TD*%
D25*
%TO.C,WAGO5*%
X157911142Y-78150000D03*
D26*
X157911142Y-73150000D03*
D27*
X154411142Y-78150000D03*
X154411142Y-73150000D03*
%TD*%
D25*
%TO.C,WAGO2*%
X121577714Y-78150000D03*
D26*
X121577714Y-73150000D03*
D27*
X118077714Y-78150000D03*
X118077714Y-73150000D03*
%TD*%
D14*
%TO.C,L3*%
X106955000Y-96675000D03*
X101875000Y-96675000D03*
%TD*%
D12*
%TO.C,SW5*%
X121016643Y-154995000D03*
X126816643Y-154995000D03*
X121016643Y-158995000D03*
X126816643Y-158995000D03*
%TD*%
D44*
%TO.C,C25*%
X102375000Y-101325000D03*
X105975000Y-101325000D03*
%TD*%
D16*
%TO.C,R7*%
X157836643Y-155907500D03*
X157836643Y-154082500D03*
%TD*%
D45*
%TO.C,Y1*%
X157908883Y-137558883D03*
X156141117Y-135791117D03*
%TD*%
D38*
%TO.C,RELAY7*%
X171253572Y-104825000D03*
D39*
X166553572Y-104825000D03*
X171253572Y-93325000D03*
X171253572Y-86325000D03*
%TD*%
D38*
%TO.C,RELAY8*%
X179071429Y-104825000D03*
D39*
X174371429Y-104825000D03*
X179071429Y-93325000D03*
X179071429Y-86325000D03*
%TD*%
D24*
%TO.C,C17*%
X186282500Y-110100000D03*
X182682500Y-110100000D03*
%TD*%
D19*
%TO.C,SB16*%
X156225000Y-116975000D03*
D20*
X157675000Y-116975000D03*
%TD*%
D19*
%TO.C,SB18*%
X146225000Y-122975000D03*
D20*
X147675000Y-122975000D03*
%TD*%
D29*
%TO.C,C19*%
X197657500Y-97125000D03*
X197657500Y-95400000D03*
%TD*%
D15*
%TO.C,R11*%
X179175000Y-117137500D03*
X179175000Y-118962500D03*
%TD*%
D16*
%TO.C,R6*%
X129996643Y-155907500D03*
X129996643Y-154082500D03*
%TD*%
D46*
%TO.C,C9*%
X160250000Y-138625000D03*
X161975000Y-138625000D03*
%TD*%
D29*
%TO.C,C8*%
X182163357Y-159857500D03*
X182163357Y-158132500D03*
%TD*%
D16*
%TO.C,R2*%
X129996643Y-143907500D03*
X129996643Y-142082500D03*
%TD*%
D15*
%TO.C,R9*%
X155475000Y-146875000D03*
X155475000Y-148700000D03*
%TD*%
D47*
%TO.C,LOAD1*%
X173850000Y-124630000D03*
X173850000Y-123360000D03*
X173850000Y-122090000D03*
X173850000Y-120820000D03*
X173850000Y-119550000D03*
X173850000Y-118280000D03*
X173850000Y-117010000D03*
X173850000Y-115740000D03*
X173850000Y-114470000D03*
X164300000Y-114470000D03*
X164300000Y-115740000D03*
X164300000Y-117010000D03*
X164300000Y-118280000D03*
X164300000Y-119550000D03*
X164300000Y-120820000D03*
X164300000Y-122090000D03*
X164300000Y-123360000D03*
X164300000Y-124630000D03*
%TD*%
D15*
%TO.C,R19*%
X138175000Y-133075000D03*
X138175000Y-134900000D03*
%TD*%
D29*
%TO.C,C22*%
X189657500Y-97125000D03*
X189657500Y-95400000D03*
%TD*%
D48*
%TO.C,C27*%
X140175000Y-133125000D03*
X140175000Y-134850000D03*
%TD*%
D46*
%TO.C,C10*%
X160250000Y-140625000D03*
X161975000Y-140625000D03*
%TD*%
D38*
%TO.C,RELAY4*%
X147800000Y-104825000D03*
D39*
X143100000Y-104825000D03*
X147800000Y-93325000D03*
X147800000Y-86325000D03*
%TD*%
D40*
%TO.C,C12*%
X145550000Y-147525000D03*
X143825000Y-147525000D03*
%TD*%
D19*
%TO.C,SB20*%
X156225000Y-122975000D03*
D20*
X157675000Y-122975000D03*
%TD*%
D19*
%TO.C,SB23*%
X151225000Y-119975000D03*
D20*
X152675000Y-119975000D03*
%TD*%
D19*
%TO.C,SB7*%
X131225000Y-122975000D03*
D20*
X132675000Y-122975000D03*
%TD*%
D12*
%TO.C,SW8*%
X173183357Y-154995000D03*
X178983357Y-154995000D03*
X173183357Y-158995000D03*
X178983357Y-158995000D03*
%TD*%
D21*
%TO.C,H3*%
X193125000Y-160750000D03*
X193893845Y-158893845D03*
X193893845Y-162606155D03*
X195750000Y-158125000D03*
D22*
X195750000Y-160750000D03*
D21*
X195750000Y-163375000D03*
X197606155Y-158893845D03*
X197606155Y-162606155D03*
X198375000Y-160750000D03*
%TD*%
D29*
%TO.C,C18*%
X189795000Y-111312500D03*
X189795000Y-109587500D03*
%TD*%
D38*
%TO.C,RELAY6*%
X163435715Y-104825000D03*
D39*
X158735715Y-104825000D03*
X163435715Y-93325000D03*
X163435715Y-86325000D03*
%TD*%
D49*
%TO.C,J1*%
X119250000Y-132245000D03*
D50*
X119250000Y-134785000D03*
X119250000Y-137325000D03*
%TD*%
D19*
%TO.C,SB5*%
X121225000Y-122975000D03*
D20*
X122675000Y-122975000D03*
%TD*%
D46*
%TO.C,C14*%
X158737500Y-135175000D03*
X160462500Y-135175000D03*
%TD*%
D12*
%TO.C,SW3*%
X161016643Y-142995000D03*
X166816643Y-142995000D03*
X161016643Y-146995000D03*
X166816643Y-146995000D03*
%TD*%
D51*
%TO.C,SCREW2*%
X106900000Y-136350000D03*
D52*
X106900000Y-131350000D03*
X106900000Y-126350000D03*
%TD*%
D25*
%TO.C,WAGO8*%
X194244571Y-78150000D03*
D26*
X194244571Y-73150000D03*
D27*
X190744571Y-78150000D03*
X190744571Y-73150000D03*
%TD*%
D46*
%TO.C,C13*%
X160262500Y-136875000D03*
X161987500Y-136875000D03*
%TD*%
D21*
%TO.C,H4*%
X101625000Y-160750000D03*
X102393845Y-158893845D03*
X102393845Y-162606155D03*
X104250000Y-158125000D03*
D22*
X104250000Y-160750000D03*
D21*
X104250000Y-163375000D03*
X106106155Y-158893845D03*
X106106155Y-162606155D03*
X106875000Y-160750000D03*
%TD*%
D19*
%TO.C,SB1*%
X121225000Y-116975000D03*
D20*
X122675000Y-116975000D03*
%TD*%
D11*
%TO.C,LED2*%
X152875000Y-153775000D03*
X152875000Y-150800000D03*
%TD*%
D19*
%TO.C,SB11*%
X131225000Y-119975000D03*
D20*
X132675000Y-119975000D03*
%TD*%
D21*
%TO.C,H2*%
X193125000Y-90000000D03*
X193893845Y-88143845D03*
X193893845Y-91856155D03*
X195750000Y-87375000D03*
D22*
X195750000Y-90000000D03*
D21*
X195750000Y-92625000D03*
X197606155Y-88143845D03*
X197606155Y-91856155D03*
X198375000Y-90000000D03*
%TD*%
D53*
%TO.C,BUCK2*%
X192520000Y-95312500D03*
X192520000Y-96262500D03*
X192520000Y-97212500D03*
X194795000Y-97212500D03*
X194795000Y-96262500D03*
X194795000Y-95312500D03*
%TD*%
D24*
%TO.C,C20*%
X186420000Y-101587500D03*
X182820000Y-101587500D03*
%TD*%
D49*
%TO.C,J2*%
X185450000Y-146530000D03*
D50*
X185450000Y-149070000D03*
X185450000Y-151610000D03*
X185450000Y-154150000D03*
X185450000Y-156690000D03*
X185450000Y-159230000D03*
X185450000Y-161770000D03*
%TD*%
D24*
%TO.C,C21*%
X186420000Y-95737500D03*
X182820000Y-95737500D03*
%TD*%
D29*
%TO.C,C3*%
X169996643Y-147857500D03*
X169996643Y-146132500D03*
%TD*%
D19*
%TO.C,SB10*%
X126225000Y-119975000D03*
D20*
X127675000Y-119975000D03*
%TD*%
D54*
%TO.C,SCREW1*%
X171175000Y-133967500D03*
D52*
X176175000Y-133967500D03*
%TD*%
D29*
%TO.C,C2*%
X142163357Y-147857500D03*
X142163357Y-146132500D03*
%TD*%
D55*
%TO.C,DIP1*%
X113450000Y-147280000D03*
D14*
X110910000Y-147280000D03*
X108370000Y-147280000D03*
X108370000Y-154900000D03*
X110910000Y-154900000D03*
X113450000Y-154900000D03*
%TD*%
D38*
%TO.C,RELAY2*%
X132164286Y-104825000D03*
D39*
X127464286Y-104825000D03*
X132164286Y-93325000D03*
X132164286Y-86325000D03*
%TD*%
D19*
%TO.C,SB22*%
X146225000Y-119975000D03*
D20*
X147675000Y-119975000D03*
%TD*%
D19*
%TO.C,SB21*%
X141225000Y-119975000D03*
D20*
X142675000Y-119975000D03*
%TD*%
D56*
%TO.C,MCU1*%
X154932070Y-139027728D03*
X154366384Y-138462043D03*
X153800699Y-137896357D03*
X153235014Y-137330672D03*
X152669328Y-136764986D03*
X152103643Y-136199301D03*
X151537957Y-135633616D03*
X150972272Y-135067930D03*
D57*
X149027728Y-135067930D03*
X148462043Y-135633616D03*
X147896357Y-136199301D03*
X147330672Y-136764986D03*
X146764986Y-137330672D03*
X146199301Y-137896357D03*
X145633616Y-138462043D03*
X145067930Y-139027728D03*
D56*
X145067930Y-140972272D03*
X145633616Y-141537957D03*
X146199301Y-142103643D03*
X146764986Y-142669328D03*
X147330672Y-143235014D03*
X147896357Y-143800699D03*
X148462043Y-144366384D03*
X149027728Y-144932070D03*
D57*
X150972272Y-144932070D03*
X151537957Y-144366384D03*
X152103643Y-143800699D03*
X152669328Y-143235014D03*
X153235014Y-142669328D03*
X153800699Y-142103643D03*
X154366384Y-141537957D03*
X154932070Y-140972272D03*
%TD*%
D53*
%TO.C,BUCK1*%
X192657500Y-109500000D03*
X192657500Y-110450000D03*
X192657500Y-111400000D03*
X194932500Y-111400000D03*
X194932500Y-110450000D03*
X194932500Y-109500000D03*
%TD*%
M02*
