%TF.GenerationSoftware,KiCad,Pcbnew,9.0.2*%
%TF.CreationDate,2026-06-16T00:44:57-04:00*%
%TF.ProjectId,CANIO-Board,43414e49-4f2d-4426-9f61-72642e6b6963,A*%
%TF.SameCoordinates,Original*%
%TF.FileFunction,Soldermask,Bot*%
%TF.FilePolarity,Negative*%
%FSLAX46Y46*%
G04 Gerber Fmt 4.6, Leading zero omitted, Abs format (unit mm)*
G04 Created by KiCad (PCBNEW 9.0.2) date 2026-06-16 00:44:57*
%MOMM*%
%LPD*%
G01*
G04 APERTURE LIST*
G04 Aperture macros list*
%AMRoundRect*
0 Rectangle with rounded corners*
0 $1 Rounding radius*
0 $2 $3 $4 $5 $6 $7 $8 $9 X,Y pos of 4 corners*
0 Add a 4 corners polygon primitive as box body*
4,1,4,$2,$3,$4,$5,$6,$7,$8,$9,$2,$3,0*
0 Add four circle primitives for the rounded corners*
1,1,$1+$1,$2,$3*
1,1,$1+$1,$4,$5*
1,1,$1+$1,$6,$7*
1,1,$1+$1,$8,$9*
0 Add four rect primitives between the rounded corners*
20,1,$1+$1,$2,$3,$4,$5,0*
20,1,$1+$1,$4,$5,$6,$7,0*
20,1,$1+$1,$6,$7,$8,$9,0*
20,1,$1+$1,$8,$9,$2,$3,0*%
G04 Aperture macros list end*
%ADD10RoundRect,0.250000X-2.000000X1.400000X-2.000000X-1.400000X2.000000X-1.400000X2.000000X1.400000X0*%
%ADD11RoundRect,0.250000X0.550000X0.550000X-0.550000X0.550000X-0.550000X-0.550000X0.550000X-0.550000X0*%
%ADD12C,1.600000*%
%ADD13C,0.800000*%
%ADD14C,7.000000*%
%ADD15C,2.000000*%
%ADD16R,1.500000X2.300000*%
%ADD17RoundRect,0.250001X0.499999X0.899999X-0.499999X0.899999X-0.499999X-0.899999X0.499999X-0.899999X0*%
%ADD18O,1.500000X2.300000*%
%ADD19C,2.160000*%
%ADD20RoundRect,0.102000X1.320000X-1.320000X1.320000X1.320000X-1.320000X1.320000X-1.320000X-1.320000X0*%
%ADD21C,2.844000*%
%ADD22C,0.650000*%
%ADD23O,1.204000X2.004000*%
%ADD24O,1.204000X2.304000*%
%ADD25C,0.990600*%
%ADD26RoundRect,0.102000X0.900000X-0.900000X0.900000X0.900000X-0.900000X0.900000X-0.900000X-0.900000X0*%
%ADD27C,2.004000*%
%ADD28C,2.434000*%
%ADD29RoundRect,0.102000X-1.357500X1.357500X-1.357500X-1.357500X1.357500X-1.357500X1.357500X1.357500X0*%
%ADD30C,2.919000*%
%ADD31R,1.700000X1.700000*%
%ADD32C,1.700000*%
%ADD33RoundRect,0.250001X1.149999X-1.149999X1.149999X1.149999X-1.149999X1.149999X-1.149999X-1.149999X0*%
%ADD34C,2.800000*%
%ADD35RoundRect,0.250001X-1.149999X-1.149999X1.149999X-1.149999X1.149999X1.149999X-1.149999X1.149999X0*%
%ADD36RoundRect,0.250000X-0.550000X0.550000X-0.550000X-0.550000X0.550000X-0.550000X0.550000X0.550000X0*%
%ADD37RoundRect,0.237500X-0.237500X0.300000X-0.237500X-0.300000X0.237500X-0.300000X0.237500X0.300000X0*%
%ADD38RoundRect,0.250000X-0.650000X1.500000X-0.650000X-1.500000X0.650000X-1.500000X0.650000X1.500000X0*%
%ADD39RoundRect,0.237500X0.300000X0.237500X-0.300000X0.237500X-0.300000X-0.237500X0.300000X-0.237500X0*%
%ADD40RoundRect,0.162500X0.617500X0.162500X-0.617500X0.162500X-0.617500X-0.162500X0.617500X-0.162500X0*%
%ADD41RoundRect,0.237500X0.250000X0.237500X-0.250000X0.237500X-0.250000X-0.237500X0.250000X-0.237500X0*%
%ADD42RoundRect,0.237500X0.237500X-0.250000X0.237500X0.250000X-0.237500X0.250000X-0.237500X-0.250000X0*%
%ADD43RoundRect,0.150000X0.150000X-0.512500X0.150000X0.512500X-0.150000X0.512500X-0.150000X-0.512500X0*%
%ADD44RoundRect,0.150000X0.587500X0.150000X-0.587500X0.150000X-0.587500X-0.150000X0.587500X-0.150000X0*%
%ADD45RoundRect,0.237500X-0.237500X0.250000X-0.237500X-0.250000X0.237500X-0.250000X0.237500X0.250000X0*%
%ADD46RoundRect,0.237500X-0.250000X-0.237500X0.250000X-0.237500X0.250000X0.237500X-0.250000X0.237500X0*%
G04 APERTURE END LIST*
D10*
%TO.C,D1*%
X170425000Y-140825000D03*
X179225000Y-140825000D03*
%TD*%
D11*
%TO.C,DFB5*%
X157165000Y-109450000D03*
D12*
X149545000Y-109450000D03*
%TD*%
D13*
%TO.C,H1*%
X101625000Y-90000000D03*
X102393845Y-88143845D03*
X102393845Y-91856155D03*
X104250000Y-87375000D03*
D14*
X104250000Y-90000000D03*
D13*
X104250000Y-92625000D03*
X106106155Y-88143845D03*
X106106155Y-91856155D03*
X106875000Y-90000000D03*
%TD*%
D11*
%TO.C,DFB3*%
X141460000Y-109450000D03*
D12*
X133840000Y-109450000D03*
%TD*%
D11*
%TO.C,DFB7*%
X172870000Y-109450000D03*
D12*
X165250000Y-109450000D03*
%TD*%
D11*
%TO.C,DFB6*%
X164985000Y-111950000D03*
D12*
X157365000Y-111950000D03*
%TD*%
D11*
%TO.C,DFB2*%
X133360000Y-111950000D03*
D12*
X125740000Y-111950000D03*
%TD*%
D15*
%TO.C,DCDC1*%
X110440000Y-91775000D03*
X110440000Y-94315000D03*
X110440000Y-96855000D03*
X110440000Y-99395000D03*
%TD*%
D16*
%TO.C,WAGO6*%
X170022285Y-78150000D03*
D17*
X170022285Y-73150000D03*
D18*
X166522285Y-78150000D03*
X166522285Y-73150000D03*
%TD*%
D12*
%TO.C,L2*%
X195657500Y-101262500D03*
X190577500Y-101262500D03*
%TD*%
D16*
%TO.C,WAGO1*%
X109466571Y-78150000D03*
D17*
X109466571Y-73150000D03*
D18*
X105966571Y-78150000D03*
X105966571Y-73150000D03*
%TD*%
D19*
%TO.C,DT1*%
X186325000Y-141060000D03*
X186325000Y-123890000D03*
D20*
X186325000Y-135205000D03*
D21*
X186325000Y-129745000D03*
%TD*%
D22*
%TO.C,USB1*%
X147110000Y-159645000D03*
X152890000Y-159645000D03*
D23*
X145680000Y-163325000D03*
X154320000Y-163325000D03*
D24*
X145680000Y-159145000D03*
X154320000Y-159145000D03*
%TD*%
D16*
%TO.C,WAGO4*%
X145800000Y-78150000D03*
D17*
X145800000Y-73150000D03*
D18*
X142300000Y-78150000D03*
X142300000Y-73150000D03*
%TD*%
D25*
%TO.C,TC1*%
X124210000Y-132590000D03*
X125226000Y-137670000D03*
X123194000Y-137670000D03*
%TD*%
D12*
%TO.C,L1*%
X195795000Y-115450000D03*
X190715000Y-115450000D03*
%TD*%
D16*
%TO.C,WAGO7*%
X182133428Y-78150000D03*
D17*
X182133428Y-73150000D03*
D18*
X178633428Y-78150000D03*
X178633428Y-73150000D03*
%TD*%
D26*
%TO.C,RELAY1*%
X124346429Y-104825000D03*
D27*
X119646429Y-104825000D03*
X124346429Y-93325000D03*
X124346429Y-86325000D03*
%TD*%
D11*
%TO.C,DFB1*%
X125755000Y-109450000D03*
D12*
X118135000Y-109450000D03*
%TD*%
D28*
%TO.C,DT2*%
X112200000Y-122045000D03*
X112200000Y-141455000D03*
D29*
X112200000Y-136080000D03*
D30*
X112200000Y-131750000D03*
X112200000Y-127420000D03*
%TD*%
D16*
%TO.C,WAGO3*%
X133688857Y-78150000D03*
D17*
X133688857Y-73150000D03*
D18*
X130188857Y-78150000D03*
X130188857Y-73150000D03*
%TD*%
D11*
%TO.C,DFB8*%
X179945000Y-111950000D03*
D12*
X172325000Y-111950000D03*
%TD*%
D26*
%TO.C,RELAY3*%
X139982143Y-104825000D03*
D27*
X135282143Y-104825000D03*
X139982143Y-93325000D03*
X139982143Y-86325000D03*
%TD*%
D26*
%TO.C,RELAY5*%
X155617858Y-104825000D03*
D27*
X150917858Y-104825000D03*
X155617858Y-93325000D03*
X155617858Y-86325000D03*
%TD*%
D11*
%TO.C,DFB4*%
X149172500Y-111950000D03*
D12*
X141552500Y-111950000D03*
%TD*%
D16*
%TO.C,WAGO5*%
X157911142Y-78150000D03*
D17*
X157911142Y-73150000D03*
D18*
X154411142Y-78150000D03*
X154411142Y-73150000D03*
%TD*%
D16*
%TO.C,WAGO2*%
X121577714Y-78150000D03*
D17*
X121577714Y-73150000D03*
D18*
X118077714Y-78150000D03*
X118077714Y-73150000D03*
%TD*%
D12*
%TO.C,L3*%
X106955000Y-96675000D03*
X101875000Y-96675000D03*
%TD*%
D26*
%TO.C,RELAY7*%
X171253572Y-104825000D03*
D27*
X166553572Y-104825000D03*
X171253572Y-93325000D03*
X171253572Y-86325000D03*
%TD*%
D26*
%TO.C,RELAY8*%
X179071429Y-104825000D03*
D27*
X174371429Y-104825000D03*
X179071429Y-93325000D03*
X179071429Y-86325000D03*
%TD*%
D26*
%TO.C,RELAY4*%
X147800000Y-104825000D03*
D27*
X143100000Y-104825000D03*
X147800000Y-93325000D03*
X147800000Y-86325000D03*
%TD*%
D13*
%TO.C,H3*%
X193125000Y-160750000D03*
X193893845Y-158893845D03*
X193893845Y-162606155D03*
X195750000Y-158125000D03*
D14*
X195750000Y-160750000D03*
D13*
X195750000Y-163375000D03*
X197606155Y-158893845D03*
X197606155Y-162606155D03*
X198375000Y-160750000D03*
%TD*%
D26*
%TO.C,RELAY6*%
X163435715Y-104825000D03*
D27*
X158735715Y-104825000D03*
X163435715Y-93325000D03*
X163435715Y-86325000D03*
%TD*%
D31*
%TO.C,J1*%
X119250000Y-132245000D03*
D32*
X119250000Y-134785000D03*
X119250000Y-137325000D03*
%TD*%
D33*
%TO.C,SCREW2*%
X106900000Y-136350000D03*
D34*
X106900000Y-131350000D03*
X106900000Y-126350000D03*
%TD*%
D16*
%TO.C,WAGO8*%
X194244571Y-78150000D03*
D17*
X194244571Y-73150000D03*
D18*
X190744571Y-78150000D03*
X190744571Y-73150000D03*
%TD*%
D13*
%TO.C,H4*%
X101625000Y-160750000D03*
X102393845Y-158893845D03*
X102393845Y-162606155D03*
X104250000Y-158125000D03*
D14*
X104250000Y-160750000D03*
D13*
X104250000Y-163375000D03*
X106106155Y-158893845D03*
X106106155Y-162606155D03*
X106875000Y-160750000D03*
%TD*%
%TO.C,H2*%
X193125000Y-90000000D03*
X193893845Y-88143845D03*
X193893845Y-91856155D03*
X195750000Y-87375000D03*
D14*
X195750000Y-90000000D03*
D13*
X195750000Y-92625000D03*
X197606155Y-88143845D03*
X197606155Y-91856155D03*
X198375000Y-90000000D03*
%TD*%
D31*
%TO.C,J2*%
X185450000Y-146530000D03*
D32*
X185450000Y-149070000D03*
X185450000Y-151610000D03*
X185450000Y-154150000D03*
X185450000Y-156690000D03*
X185450000Y-159230000D03*
X185450000Y-161770000D03*
%TD*%
D35*
%TO.C,SCREW1*%
X171175000Y-133967500D03*
D34*
X176175000Y-133967500D03*
%TD*%
D36*
%TO.C,DIP1*%
X113450000Y-147280000D03*
D12*
X110910000Y-147280000D03*
X108370000Y-147280000D03*
X108370000Y-154900000D03*
X110910000Y-154900000D03*
X113450000Y-154900000D03*
%TD*%
D26*
%TO.C,RELAY2*%
X132164286Y-104825000D03*
D27*
X127464286Y-104825000D03*
X132164286Y-93325000D03*
X132164286Y-86325000D03*
%TD*%
D37*
%TO.C,C24*%
X113750000Y-104850000D03*
X113750000Y-106575000D03*
%TD*%
D38*
%TO.C,TVS1*%
X180900000Y-126400000D03*
X180900000Y-131400000D03*
%TD*%
D39*
%TO.C,C23*%
X105425000Y-102325000D03*
X103700000Y-102325000D03*
%TD*%
D40*
%TO.C,LDO1*%
X111275000Y-104750000D03*
X111275000Y-105700000D03*
X111275000Y-106650000D03*
X108575000Y-106650000D03*
X108575000Y-104750000D03*
%TD*%
D41*
%TO.C,R16*%
X109925000Y-112015000D03*
X108100000Y-112015000D03*
%TD*%
D42*
%TO.C,R14*%
X103575000Y-106600000D03*
X103575000Y-104775000D03*
%TD*%
D43*
%TO.C,TVS4*%
X191787500Y-157087500D03*
X190837500Y-157087500D03*
X189887500Y-157087500D03*
X189887500Y-154812500D03*
X191787500Y-154812500D03*
%TD*%
D44*
%TO.C,TVS2*%
X116762500Y-133137500D03*
X116762500Y-135037500D03*
X114887500Y-134087500D03*
%TD*%
D39*
%TO.C,C26*%
X109875000Y-116015000D03*
X108150000Y-116015000D03*
%TD*%
D45*
%TO.C,R13*%
X105575000Y-104775000D03*
X105575000Y-106600000D03*
%TD*%
D46*
%TO.C,R15*%
X108100000Y-114015000D03*
X109925000Y-114015000D03*
%TD*%
D43*
%TO.C,TVS5*%
X191787500Y-152087500D03*
X190837500Y-152087500D03*
X189887500Y-152087500D03*
X189887500Y-149812500D03*
X191787500Y-149812500D03*
%TD*%
M02*
